<svg width="209" height="72" viewBox="0 0 209 72" fill="none" xmlns="http://www.w3.org/2000/svg">
<path d="M28.1273 10.251L28.0161 10.2617L28.1807 10.2488L28.1273 10.251Z" fill="#384835"/>
<path d="M54.0716 23.978C51.6256 19.2315 47.5623 15.5274 42.6239 13.542C39.5112 12.2851 36.2296 11.5012 32.8871 11.2161C29.0574 10.8395 25.1955 10.9555 21.395 11.5611C15.631 12.5349 9.93339 14.8997 6.0298 19.3874C4.36069 21.298 3.02498 23.4784 2.07915 25.8365C1.11301 28.3098 0.484389 30.9031 0.210409 33.5459C0.0697837 34.858 -0.000453982 36.1768 2.20786e-06 37.4966C2.20786e-06 42.6964 1.03542 48.0688 3.77624 52.5593C5.12018 54.7691 6.85285 56.7149 8.88967 58.3017C11.2356 60.0815 13.8705 61.4397 16.6775 62.3163C20.0827 63.4153 23.679 63.8771 27.2476 63.9857C27.5466 63.9857 27.8456 63.9856 28.1446 63.9996H28.5903C31.8446 64.0146 35.0893 63.6458 38.2579 62.9006C43.795 61.5735 48.8558 58.6439 52.2444 54.0282C55.3147 49.855 56.674 44.5994 56.9509 39.4775C57.2111 34.2136 56.4636 28.7188 54.0716 23.978ZM46.8514 20.5948V20.6087C46.987 20.7534 46.9289 20.6783 46.8514 20.5948ZM12.3032 37.9862C12.6673 36.6541 13.1829 35.3686 13.8398 34.1552C14.1631 33.5677 14.5237 33.0017 14.9195 32.4608C15.116 32.1826 15.3347 31.935 15.5396 31.6679C15.2628 32.0463 15.6088 31.5956 15.6863 31.5093C15.8192 31.3646 15.9632 31.2311 16.0933 31.0809C16.5735 30.5928 17.0879 30.14 17.6326 29.7259C17.9094 29.5201 18.1863 29.3281 18.4632 29.1389L18.6514 29.022C18.8314 28.9135 19.0141 28.8078 19.2051 28.7049C19.7588 28.3933 20.354 28.1345 20.9437 27.8702C20.9437 27.8702 21.2787 27.7339 21.3922 27.6949C21.5777 27.6282 21.766 27.567 21.9459 27.5058C22.3667 27.3722 22.7931 27.2554 23.2194 27.1469L23.834 27.005C23.0367 27.2025 23.8091 27.005 24.0002 26.9771C24.4736 26.8909 24.947 26.8186 25.4232 26.7601C25.8274 26.7073 26.2343 26.6683 26.6385 26.6349H26.5278H26.6801H26.8462H26.8794C27.1563 26.6349 27.4497 26.6099 27.7376 26.6043C28.236 26.6043 28.7398 26.6043 29.2382 26.6043C29.4846 26.6043 29.7282 26.6043 29.9746 26.6294C30.0826 26.6294 30.1905 26.6294 30.2985 26.6461C31.199 26.7138 32.0954 26.8289 32.984 26.9911C33.175 27.0272 33.9474 27.2164 33.1501 27.0189L33.7647 27.1608C34.191 27.2693 34.6174 27.3861 35.0382 27.5197C35.2264 27.5809 35.4147 27.6421 35.5919 27.7089C35.7691 27.7756 36.4224 28.0427 35.7497 27.7617C36.0985 27.9092 36.4501 28.0399 36.7934 28.2097C37.1367 28.3794 37.4551 28.5324 37.779 28.7104C37.9368 28.7995 38.0918 28.8885 38.2469 28.9887L38.4767 29.1278H38.4988C39.0685 29.5108 39.614 29.929 40.1322 30.3797C40.4312 30.6441 40.7164 30.9167 40.9932 31.2144C41.1289 31.3563 41.2701 31.4926 41.3947 31.6456C41.4463 31.7119 41.5017 31.7751 41.5608 31.8348L41.4916 31.7708L41.5885 31.8738C42.0636 32.4594 42.4948 33.0797 42.8786 33.7295C43.6449 35.0476 44.2386 36.4596 44.6449 37.9306C45.4539 41.1266 45.6298 44.4513 45.1626 47.7155C45.046 48.5591 44.8805 49.3952 44.667 50.2194C44.5148 50.8009 44.3431 51.3323 44.1687 51.8081C44.1337 51.9007 44.0667 51.9777 43.9801 52.025C43.8934 52.0723 43.7927 52.0869 43.6963 52.066C43.5999 52.0452 43.5141 51.9903 43.4545 51.9113C43.3949 51.8323 43.3654 51.7345 43.3714 51.6356V51.6078C43.5043 49.0203 43.1167 46.2966 41.9262 43.9679C40.6656 41.5686 38.5927 39.7015 36.0819 38.704C32.5631 37.2823 28.5184 36.993 24.7836 37.6106C21.7881 38.1086 18.7317 39.2799 16.6775 41.603C14.9056 43.609 13.9643 46.0712 13.6653 48.7143C13.5945 49.361 13.5594 50.0112 13.5601 50.6618C13.5601 50.9706 13.5601 51.2822 13.585 51.5911C13.5887 51.6892 13.5576 51.7854 13.4973 51.8626C13.437 51.9399 13.3513 51.9931 13.2556 52.0128C13.1599 52.0325 13.0603 52.0174 12.9747 51.9702C12.889 51.9231 12.8227 51.8469 12.7877 51.7552C12.605 51.2655 12.4444 50.7675 12.3032 50.2667C11.3139 46.2355 11.3139 42.023 12.3032 37.9918V37.9862ZM18.7898 46.764C19.0177 45.9302 19.3381 45.1248 19.745 44.363C19.952 43.9783 20.1823 43.6066 20.4343 43.2501C20.5712 43.091 20.6997 42.9248 20.8191 42.7521L20.7942 42.7966C20.8123 42.7681 20.8327 42.7411 20.8551 42.7159C20.9299 42.6324 21.0046 42.5518 21.0849 42.4711C21.4019 42.1415 21.7424 41.8356 22.1037 41.5557C22.2726 41.4222 22.4498 41.2998 22.627 41.1746C22.7433 41.105 22.8595 41.0355 22.9786 40.9687C23.3828 40.7406 23.8091 40.5597 24.2244 40.3733H24.2576L24.5871 40.262C24.8639 40.173 25.1408 40.0951 25.4176 40.0228L25.6474 39.9699L25.7305 39.9504C26.0073 39.8948 26.3119 39.8503 26.6053 39.8113C26.8988 39.7724 27.159 39.7473 27.4553 39.7223L27.9785 39.7028C28.2913 39.7028 28.6042 39.7028 28.9198 39.7028C29.0841 39.7028 29.2474 39.7084 29.4098 39.7195H29.4984C30.0521 39.7724 30.6197 39.8364 31.1761 39.9365L31.2564 39.9532L31.4917 40.0089C31.7686 40.0784 32.0454 40.1563 32.3223 40.2426L32.6517 40.3538L32.8372 40.4206C33.1307 40.5208 32.6296 40.3372 32.6268 40.3372C32.8675 40.4148 33.1002 40.5154 33.3217 40.6376C33.546 40.7434 33.7647 40.8574 33.9778 40.9771C34.0701 41.0271 34.1624 41.08 34.2547 41.1356L34.3294 41.1802C34.7011 41.4354 35.0562 41.7142 35.3926 42.0148C35.5725 42.1762 35.7469 42.3431 35.913 42.5184C35.9989 42.6074 36.0847 42.702 36.1705 42.7966C36.1539 42.7771 36.1705 42.7799 36.1982 42.83C36.2259 42.8801 36.2508 42.894 36.2812 42.9246L36.2286 42.8689C36.5324 43.2521 36.8099 43.6555 37.0592 44.0764C37.5384 44.9135 37.9105 45.8081 38.1666 46.7389C38.8116 49.3168 38.8116 52.0151 38.1666 54.593C37.9433 55.4082 37.6323 56.1965 37.2391 56.944C37.0327 57.329 36.8025 57.7007 36.5498 58.0568C36.4129 58.2159 36.2844 58.3821 36.165 58.5548C36.1743 58.5406 36.1826 58.5257 36.1899 58.5103C36.1725 58.5394 36.1521 58.5664 36.129 58.591C36.0542 58.6745 35.9767 58.7579 35.8992 58.8386C35.5829 59.1681 35.2423 59.4731 34.8804 59.7512C34.7115 59.8847 34.5343 60.0071 34.3571 60.1323C34.2409 60.2019 34.1273 60.2715 34.0083 60.3382C33.6041 60.5636 33.1777 60.7472 32.7625 60.9308L32.7293 60.9447C32.6185 60.9809 32.5105 61.0198 32.3998 61.0532C32.1229 61.1423 31.8461 61.223 31.5692 61.2925L31.3395 61.3481L31.2564 61.3648C30.9796 61.4205 30.675 61.465 30.3816 61.504C30.0881 61.5429 29.8279 61.5679 29.5316 61.593C29.3821 61.593 29.2299 61.6069 29.0804 61.6097C28.7038 61.6097 28.3246 61.6097 27.9453 61.6097H27.5743H27.4885C26.9348 61.5596 26.3672 61.4956 25.8108 61.3927L25.7305 61.376L25.4952 61.3231C25.2183 61.2536 24.9415 61.1729 24.6646 61.0866L24.3351 60.9753L24.1497 60.9113C23.8562 60.8084 24.3573 60.992 24.3601 60.992C24.1183 60.915 23.8846 60.8144 23.6624 60.6916C23.4409 60.5858 23.2222 60.4745 23.009 60.3549L22.7322 60.1935L22.6574 60.149C22.2857 59.8939 21.9306 59.6151 21.5943 59.3144C21.4144 59.153 21.24 58.9833 21.0739 58.8108L20.8164 58.5326C20.833 58.5521 20.8164 58.5493 20.7887 58.502C20.7632 58.4686 20.7354 58.437 20.7056 58.4074L20.7582 58.463C20.4538 58.0794 20.1763 57.675 19.9277 57.2528C19.4395 56.4043 19.0618 55.4964 18.8037 54.5513C18.1905 51.9911 18.1905 49.3213 18.8037 46.7612L18.7898 46.764ZM51.9122 42.3515C51.7496 43.5279 51.5185 44.6938 51.2201 45.8431C51.102 46.2752 50.9718 46.7037 50.8297 47.1284C50.7986 47.2265 50.7323 47.3093 50.6437 47.3609C50.5551 47.4125 50.4506 47.4292 50.3505 47.4077C50.2504 47.3862 50.1618 47.328 50.102 47.2445C50.0422 47.161 50.0154 47.0582 50.0269 46.956C50.073 46.5052 50.109 46.0545 50.1348 45.6038C50.3452 41.6865 49.7832 37.58 48.0031 34.0467C46.1642 30.4734 43.1098 27.6823 39.3958 26.1814C37.0071 25.2108 34.4878 24.6031 31.9208 24.3786C29.0034 24.0903 26.0614 24.1716 23.1641 24.6206C18.7843 25.3468 14.4045 27.1051 11.4173 30.4994C8.79 33.4847 7.41406 37.2128 6.98771 41.1329C6.87887 42.1195 6.82526 43.1115 6.82713 44.1042C6.827 45.067 6.87782 46.0292 6.9794 46.9866C6.9897 47.0877 6.96268 47.1891 6.90347 47.2715C6.84426 47.3539 6.75698 47.4116 6.65823 47.4335C6.55948 47.4555 6.45613 47.4403 6.36783 47.3907C6.27954 47.3411 6.21244 47.2607 6.1793 47.1646L6.13778 47.0339C6.01042 46.6444 5.89415 46.2521 5.78617 45.8598C4.42956 40.3705 4.42956 34.631 5.78617 29.1417C6.27123 27.3592 6.9567 25.638 7.82933 24.0113C8.27644 23.1876 8.77773 22.3948 9.32986 21.6382C9.60671 21.2653 9.90017 20.9148 10.1853 20.5503C9.90848 20.8925 10.1466 20.5976 10.2185 20.5142L10.4428 20.2638C10.6117 20.0746 10.7861 19.8909 10.9633 19.7073C11.6345 19.0253 12.3524 18.3913 13.1116 17.8099C13.4909 17.5317 13.8785 17.2534 14.2716 16.9752H14.2938L14.5983 16.7888C14.8309 16.6469 15.0662 16.5106 15.3015 16.3798C15.7583 16.1267 16.2262 15.8902 16.6858 15.6676C16.9128 15.5619 17.1426 15.4589 17.3724 15.3616L17.724 15.2141L18.0008 15.1028L18.1005 15.0667L18.4687 14.9331C18.7455 14.8413 19.0002 14.7523 19.2688 14.6688C19.8225 14.4926 20.3762 14.3368 20.9299 14.2014C21.1652 14.1402 21.4033 14.0873 21.6414 14.0345L21.4919 14.0623L21.6995 14.0206H21.7438C21.7994 14.0067 21.8558 13.9965 21.9127 13.99L22.1757 13.9399C22.7931 13.8258 23.4132 13.7312 24.0361 13.6617C24.6175 13.5893 25.2008 13.5309 25.7858 13.4864C25.5948 13.5003 25.7858 13.4864 25.8966 13.4864H25.9381L26.1734 13.4697H25.999L26.3783 13.4474C26.7465 13.4307 27.1147 13.4168 27.4857 13.4085C28.1741 13.3936 28.8635 13.3936 29.5538 13.4085L30.5338 13.4419L31.0155 13.4669H31.0405C32.3181 13.5617 33.5897 13.7252 34.8499 13.9566L35.2707 14.0372C35.5476 14.0985 35.8244 14.1597 36.1013 14.2292C36.655 14.3655 37.1838 14.5074 37.7209 14.6855C37.9728 14.7634 38.2247 14.8469 38.4739 14.9359L38.8421 15.0667C38.9196 15.0945 39.0774 15.1585 39.1577 15.1918L38.9058 15.0861C39.3875 15.2892 39.872 15.484 40.3454 15.7038C40.8188 15.9236 41.2812 16.1656 41.7297 16.4188C41.9401 16.5356 42.1477 16.6581 42.3553 16.7805L42.6599 16.9697L42.7208 17.0086C43.5232 17.5393 44.2882 18.1249 45.0103 18.7614C45.3619 19.0702 45.6997 19.3929 46.0291 19.7268C46.1953 19.8993 46.3614 20.0718 46.5219 20.2498L46.7462 20.5002L46.8348 20.6004C47.3885 21.3349 47.9671 22.0471 48.4627 22.8261C49.4676 24.4351 50.2701 26.163 50.8519 27.9704C50.982 28.3655 51.0983 28.7633 51.209 29.1639C52.2984 33.4714 52.5373 37.9517 51.9122 42.3515Z" fill="#384835"/>
<path d="M24.8445 10.6927L24.7972 10.7035L25.0121 10.6604L24.8445 10.6927Z" fill="#384835"/>
<path d="M36.0827 45.149C36.1708 44.9959 36.1365 45.0714 36.0827 45.149Z" fill="#384835"/>
<path d="M24.1397 32.9905C24.086 33.0702 24.0516 33.1457 24.1397 32.9905Z" fill="#384835"/>
<path d="M36.1257 33.0314L36.1021 33.0034L36.0806 32.9775C36.0944 32.9972 36.1095 33.0159 36.1257 33.0336V33.0314Z" fill="#384835"/>
<path d="M24.0967 45.108L24.1203 45.1382L24.1418 45.1619C24.1279 45.1431 24.1128 45.1251 24.0967 45.108Z" fill="#384835"/>
<path d="M76 5V26H72V5H76Z" fill="#384835"/>
<path d="M100 10H96V26H100V10Z" fill="#384835"/>
<path d="M104.617 0.456482L100.792 4.8419L101.316 5.45607L106.172 2.24082L104.617 0.456482Z" fill="#384835"/>
<path d="M94 10.0073V25.6989H89.7985V22.8142L89.8268 20.6995C89.2606 24.0732 87.4128 26 83.7983 26C80.0007 26 78 23.5331 78 19.8346V10H82.2317V18.6176C82.2317 21.1721 83.1886 22.7376 85.9707 22.7376C88.6377 22.7376 89.7683 20.8327 89.7683 18.114V10.0073H94Z" fill="#384835"/>
<path d="M135.4 23.16C134.687 23.16 134.345 22.8403 134.345 21.764V16.3029C134.345 12.0335 131.746 10 127.3 10C123.676 10 120.987 11.6287 119.225 14.207L122.801 16.231C123.73 14.5285 125.048 13.5733 127.183 13.5733C129.493 13.5733 130.491 14.7347 130.491 16.2215C130.491 17.1806 129.376 17.7027 128.095 18.0224C127.156 18.255 125.986 18.518 125.159 18.6617C123.477 19.0401 122.222 19.3881 121.109 19.9991C119.655 20.8125 119 21.8283 119 23.4267C119 25.5189 120.51 27 123.362 27C126.87 27 129.521 24.4387 130.435 20.5685C130.405 21.5275 130.32 21.7337 130.32 22.8082C130.32 25.8348 131.633 26.8752 133.885 26.8752C134.599 26.8805 135.311 26.7863 136 26.5952V23.0825C135.805 23.1382 135.603 23.1644 135.4 23.16ZM130.494 18.2702C130.037 21.781 128.025 23.7161 125.852 23.7161C124.103 23.7161 123.215 22.8668 123.215 21.7432C123.215 20.8371 123.991 19.9688 124.771 19.6132C125.664 19.2272 126.593 18.9332 127.544 18.7355C128.97 18.4328 130.047 18.1056 130.504 17.3092L130.494 18.2702Z" fill="#384835"/>
<path d="M109.769 18.134C107.24 18.0192 106.151 17.4546 106.151 16.1823C106.151 14.8235 106.941 13.6962 109.197 13.6962C111.414 13.6962 112.883 14.5826 114.115 15.8078L116.795 12.5087C114.781 10.8601 112.268 10 109.063 10C106.937 10 105.308 10.4611 104.166 11.4153C103.052 12.3412 102.48 13.4685 102.48 14.8028C102.48 17.6672 103.96 18.7193 109.741 18.9432C112.16 19.0392 113.331 19.585 113.331 20.7499C113.331 22.2819 112.268 23.2059 110.311 23.2059C107.741 23.2059 106.149 22.0918 104.975 20.6935L102 24.3144C104.076 25.9837 106.537 27 109.824 27C112.353 27 114.202 26.537 115.314 25.6412C116.428 24.7171 117 23.5898 117 22.2894C117.004 19.5925 115.289 18.3654 109.769 18.134Z" fill="#384835"/>
<path d="M172 42.5143C172 37.9209 175.051 34 180.501 34C185.951 34 189 37.8104 189 42.5143C189 47.1382 186.091 51 180.501 51C174.966 51 172 47.1953 172 42.5143ZM184.99 42.5143C184.99 39.8223 183.438 37.8923 180.501 37.8923C177.564 37.8923 176.01 39.9137 176.01 42.5143C176.01 45.1816 177.482 47.1077 180.501 47.1077C183.55 47.1077 184.99 45.1187 184.99 42.5143Z" fill="#384835"/>
<path d="M160.579 34.6863C163.762 34.6863 166.51 36.6267 166.922 40.4181L166.708 37.5587L166.677 30H171V50.8567H166.708V48.6894L166.915 44.8124C166.465 48.628 164.186 51 160.461 51C156.494 51 153 48.2857 153 42.9148C152.998 37.6294 156.671 34.6863 160.579 34.6863ZM166.855 42.7715C166.855 40.2284 165.139 38.3438 162.06 38.3438C158.981 38.3438 157.203 40.2284 157.203 42.8571C157.203 45.4002 158.861 47.3425 162.06 47.3425C165.228 47.3425 166.855 45.3723 166.855 42.7715Z" fill="#384835"/>
<path d="M93.4074 34.0016C92.4563 33.979 91.5151 34.1958 90.6734 34.6313C89.8749 35.0715 89.1764 35.6671 88.6206 36.3818C88.0648 37.0965 87.6635 37.9151 87.4413 38.7874C86.9525 35.6881 85.1664 34.0016 81.99 34.0016C81.0681 33.9833 80.1568 34.1976 79.3434 34.624C78.5627 35.0561 77.8773 35.6364 77.3272 36.3311C76.7771 37.0259 76.3732 37.8211 76.1391 38.6706V34.3028H72V50H76.167V41.8995C76.167 39.1799 77.2227 37.2743 79.8489 37.2743C82.5904 37.2743 83.4174 38.9006 83.4174 41.3939V50H87.5826V41.9561C87.5826 39.2364 88.9802 37.2743 91.2645 37.2743C94.0041 37.2743 94.833 38.844 94.833 41.3939V50H99V40.1619C99.0019 36.4621 96.9741 34.0016 93.4074 34.0016Z" fill="#384835"/>
<path d="M116.397 47.1542C115.683 47.1542 115.342 46.8346 115.342 45.7607V40.302C115.342 36.0326 112.742 34 108.299 34C104.672 34 101.985 35.628 100.223 38.207L103.803 40.2282C104.731 38.5265 106.048 37.5811 108.183 37.5811C110.493 37.5811 111.492 38.744 111.492 40.2282C111.492 41.1869 110.378 41.7087 109.097 42.0283C108.156 42.2608 106.986 42.5217 106.159 42.6673C104.477 43.0455 103.222 43.3934 102.109 44.0022C100.655 44.8153 100 45.8325 100 47.4283C100 49.5195 101.512 51 104.364 51C107.87 51 110.523 48.4418 111.435 44.5713C111.407 45.53 111.322 45.7361 111.322 46.8119C111.322 49.8372 112.633 50.8771 114.885 50.8771C115.599 50.8819 116.311 50.7871 117 50.5954V47.0785C116.803 47.1332 116.6 47.1587 116.397 47.1542ZM111.492 42.2684C111.034 45.7758 109.021 47.7119 106.841 47.7119C105.092 47.7119 104.202 46.8611 104.202 45.738C104.202 44.8342 104.978 43.9663 105.758 43.6089C106.652 43.2253 107.581 42.9315 108.531 42.7316C109.959 42.431 111.034 42.102 111.502 41.306L111.492 42.2684Z" fill="#384835"/>
<path d="M126.139 47.1077C123.411 47.1077 121.874 45.1777 121.874 42.5143C121.843 41.3087 122.243 40.1361 122.993 39.2374C123.757 38.3305 124.822 37.8923 126.158 37.8923C128.458 37.8923 129.701 39.1935 130.084 41.1406L133.964 40.2395C133.158 36.6196 130.524 34 126.158 34C121.056 34 118 37.9209 118 42.5143C118 47.1953 120.864 51 126.131 51C130.725 51 133.27 48.247 134 44.6557L130.112 43.7908C129.733 45.7302 128.465 47.1077 126.139 47.1077Z" fill="#384835"/>
<path d="M144.145 29H143.733L140 32.6228L140.568 33L143.956 31.2456L147.43 33L148 32.6193L144.145 29Z" fill="#384835"/>
<path d="M143.557 47.1077C140.555 47.1077 139.092 45.2349 139.092 42.5448H152V41.8703C152 37.4884 149.176 34 143.644 34C138.169 34 135 38.0009 135 42.6019C135 47.4602 137.765 51 143.73 51C145.949 51 147.735 50.4437 149.146 49.3615C150.372 48.4172 151.305 47.1358 151.835 45.6693L147.572 44.6938C146.942 46.2142 145.722 47.1077 143.557 47.1077ZM139.128 41.8799C139.4 39.626 140.962 37.8923 143.674 37.8923C146.488 37.8923 147.82 39.6432 147.904 41.8741L139.128 41.8799Z" fill="#384835"/>
<path d="M77.1227 58.3469H78.4593L83.5434 67.9841H82.3422L81.0765 65.6739H74.4668L73.2141 67.9841H72L77.1227 58.3469ZM80.5845 64.6632L77.7932 59.3447H77.7674L74.9739 64.6632H80.5845Z" fill="#384835"/>
<path d="M86.0919 58.3469H93.0561C93.6826 58.3344 94.3047 58.4533 94.8826 58.696C95.3748 58.9008 95.7983 59.2425 96.1031 59.6809C96.3927 60.1145 96.5427 60.6267 96.5329 61.1484C96.54 61.4789 96.4781 61.8072 96.3512 62.1123C96.2242 62.4173 96.0351 62.6924 95.7959 62.9198C95.259 63.423 94.5668 63.7272 93.834 63.7818L96.505 67.9905H95.1834L92.7145 63.9995H87.2221V67.9905H86.0919V58.3469ZM92.968 62.9952C93.5908 63.0265 94.2063 62.8507 94.7193 62.4953C94.9276 62.3489 95.0969 62.1535 95.2123 61.9261C95.3277 61.6988 95.3857 61.4465 95.3811 61.1915C95.3878 60.9319 95.331 60.6745 95.2156 60.442C95.1003 60.2095 94.9299 60.0088 94.7193 59.8576C94.2063 59.5021 93.5908 59.3264 92.968 59.3576H87.2221V62.9952H92.968Z" fill="#384835"/>
<path d="M109.31 69.7835C109.721 69.5423 110.055 69.1888 110.272 68.7642L111.104 69.3245C110.846 69.8927 110.41 70.361 109.862 70.6584C109.25 70.9841 108.565 71.1459 107.872 71.1282C107.013 71.1282 106.324 70.917 105.807 70.4946C105.554 70.287 105.353 70.023 105.219 69.7238C105.086 69.4245 105.024 69.0982 105.038 68.7706V68.3073C103.966 68.2577 102.916 67.9901 101.95 67.5207C101.107 67.1152 100.387 66.4919 99.8636 65.7148C99.3646 64.9314 99.1063 64.0181 99.1208 63.0885C99.1353 62.159 99.422 61.2542 99.9452 60.4868C100.531 59.6736 101.331 59.0394 102.255 58.6551C104.437 57.7816 106.87 57.7816 109.052 58.6551C109.979 59.0381 110.781 59.6724 111.368 60.4868C111.894 61.2577 112.181 62.1672 112.193 63.1012C112.206 64.0351 111.942 64.9519 111.437 65.7364C110.901 66.5193 110.167 67.1448 109.31 67.5487C108.326 68.0172 107.256 68.2756 106.168 68.3073V68.6758C106.16 68.8785 106.2 69.0803 106.285 69.2643C106.371 69.4483 106.498 69.6093 106.658 69.7339C107.042 70.0116 107.509 70.1493 107.982 70.124C108.446 70.1284 108.904 70.0111 109.31 69.7835ZM100.94 65.3248C101.431 65.9842 102.093 66.495 102.855 66.801C104.651 67.5044 106.645 67.5044 108.442 66.801C109.204 66.4956 109.867 65.9847 110.358 65.3248C110.807 64.6962 111.048 63.9427 111.048 63.1698C111.048 62.3969 110.807 61.6434 110.358 61.0148C109.866 60.3567 109.203 59.8462 108.442 59.5386C106.645 58.8381 104.651 58.8381 102.855 59.5386C102.095 59.8471 101.433 60.3574 100.94 61.0148C100.492 61.6434 100.251 62.3969 100.251 63.1698C100.251 63.9427 100.492 64.6962 100.94 65.3248Z" fill="#384835"/>
<path d="M117.623 67.7729C116.86 67.4295 116.217 66.8652 115.775 66.1523C115.319 65.3802 115.09 64.4939 115.116 63.5965V58.3469H116.261V63.6116C116.261 64.8054 116.634 65.7163 117.378 66.3441C118.123 66.9719 119.126 67.2866 120.387 67.288C121.65 67.288 122.653 66.9734 123.395 66.3441C124.137 65.7149 124.507 64.804 124.504 63.6116V58.3469H125.636V63.5965C125.662 64.4941 125.432 65.3804 124.974 66.1523C124.534 66.8651 123.891 67.4295 123.129 67.7729C122.256 68.1384 121.32 68.3266 120.375 68.3266C119.43 68.3266 118.494 68.1384 117.621 67.7729H117.623Z" fill="#384835"/>
<path d="M128.986 58.3469H130.119V67.9841H128.986V58.3469Z" fill="#384835"/>
<path d="M137.257 59.3576H132.676V58.3469H142.969V59.3576H138.387V67.9776H137.257V59.3576Z" fill="#384835"/>
<path d="M145.528 58.3469H154.824V59.3576H146.63V62.5168H154.278V63.5038H146.63V66.9906H154.959V67.9884H145.528V58.3469Z" fill="#384835"/>
<path d="M161.82 59.3576H157.241V58.3469H167.532V59.3576H162.952V67.9776H161.82V59.3576Z" fill="#384835"/>
<path d="M172.53 67.7729C171.767 67.4295 171.124 66.8651 170.684 66.1523C170.226 65.3804 169.997 64.4941 170.022 63.5965V58.3469H171.167V63.6116C171.167 64.8054 171.54 65.7163 172.285 66.3441C173.03 66.9719 174.032 67.2866 175.293 67.288C176.554 67.288 177.556 66.9734 178.301 66.3441C179.046 65.7149 179.414 64.804 179.406 63.6116V58.3469H180.536V63.5965C180.562 64.4939 180.333 65.3802 179.876 66.1523C179.435 66.8652 178.792 67.4295 178.028 67.7729C177.156 68.1384 176.22 68.3266 175.275 68.3266C174.329 68.3266 173.393 68.1384 172.521 67.7729H172.53Z" fill="#384835"/>
<path d="M183.882 58.3469H190.846C191.472 58.3349 192.094 58.4538 192.673 58.696C193.165 58.9008 193.588 59.2426 193.893 59.6809C194.183 60.1145 194.333 60.6267 194.323 61.1484C194.33 61.4789 194.268 61.8072 194.141 62.1123C194.014 62.4173 193.825 62.6924 193.586 62.9198C193.048 63.4226 192.355 63.7266 191.622 63.7818L194.295 67.9905H192.973L190.504 63.9995H185.012V67.9905H183.882V58.3469ZM190.758 62.9952C191.381 63.0265 191.996 62.8507 192.509 62.4953C192.717 62.3488 192.886 62.1533 193.001 61.9259C193.116 61.6986 193.174 61.4464 193.169 61.1915C193.176 60.932 193.12 60.6748 193.005 60.4422C192.89 60.2097 192.72 60.0089 192.509 59.8576C191.996 59.5021 191.381 59.3264 190.758 59.3576H185.012V62.9952H190.758Z" fill="#384835"/>
<path d="M201.831 58.3469H203.167L208.251 67.9841H207.052L205.785 65.6739H199.188L197.933 67.9841H196.719L201.831 58.3469ZM205.295 64.6632L202.514 59.3447H202.484L199.691 64.6632H205.295Z" fill="#384835"/>
</svg>
